<svg width="245" height="55" viewBox="0 0 245 55" fill="none" xmlns="http://www.w3.org/2000/svg">
<path fill-rule="evenodd" clip-rule="evenodd" d="M10.8808 31.4699L8.50078 35.9499V50.9999H0.800781V1.99994H8.50078V23.3499L18.5808 1.99994H26.2808L15.5708 23.8399L26.2808 50.9999H18.3708L10.8808 31.4699ZM37.1508 39.7299C37.1508 41.5033 37.5124 42.7516 38.2358 43.4749C38.9591 44.1983 39.9274 44.5599 41.1408 44.5599C42.3541 44.5599 43.3224 44.1983 44.0458 43.4749C44.7691 42.7516 45.1308 41.5033 45.1308 39.7299V13.2699C45.1308 11.4966 44.7691 10.2483 44.0458 9.52494C43.3224 8.8016 42.3541 8.43994 41.1408 8.43994C39.9274 8.43994 38.9591 8.8016 38.2358 9.52494C37.5124 10.2483 37.1508 11.4966 37.1508 13.2699V39.7299ZM29.4508 13.7599C29.4508 9.79325 30.4541 6.74829 32.4608 4.62494C34.4675 2.5016 37.3608 1.43994 41.1408 1.43994C44.9208 1.43994 47.8141 2.5016 49.8208 4.62494C51.8275 6.74829 52.8308 9.79325 52.8308 13.7599V39.2399C52.8308 43.2066 51.8275 46.2516 49.8208 48.3749C47.8141 50.4983 44.9208 51.5599 41.1408 51.5599C37.3608 51.5599 34.4675 50.4983 32.4608 48.3749C30.4541 46.2516 29.4508 43.2066 29.4508 39.2399V13.7599ZM65.4508 15.5099V50.9999H58.5208V1.99994H68.1808L76.0908 31.3299V1.99994H82.9508V50.9999H75.0408L65.4508 15.5099ZM88.2908 13.7599C88.2908 9.79325 89.2358 6.74829 91.1258 4.62494C93.0158 2.5016 95.8508 1.43994 99.6308 1.43994C103.411 1.43994 106.246 2.5016 108.136 4.62494C110.026 6.74829 110.971 9.79325 110.971 13.7599V15.2999H103.691V13.2699C103.691 11.4966 103.352 10.2483 102.676 9.52494C101.999 8.8016 101.054 8.43994 99.8408 8.43994C98.6274 8.43994 97.6825 8.8016 97.0058 9.52494C96.3291 10.2483 95.9908 11.4966 95.9908 13.2699C95.9908 14.9499 96.3641 16.4316 97.1108 17.7149C97.8575 18.9983 98.7908 20.2116 99.9108 21.3549C101.031 22.4983 102.232 23.6416 103.516 24.7849C104.799 25.9283 106.001 27.1766 107.121 28.5299C108.241 29.8833 109.174 31.4233 109.921 33.1499C110.667 34.8766 111.041 36.9066 111.041 39.2399C111.041 43.2066 110.072 46.2516 108.136 48.3749C106.199 50.4983 103.341 51.5599 99.5608 51.5599C95.7808 51.5599 92.9225 50.4983 90.9858 48.3749C89.0491 46.2516 88.0808 43.2066 88.0808 39.2399V36.2299H95.3608V39.7299C95.3608 41.5033 95.7224 42.7399 96.4458 43.4399C97.1691 44.1399 98.1374 44.4899 99.3508 44.4899C100.564 44.4899 101.532 44.1399 102.256 43.4399C102.979 42.7399 103.341 41.5033 103.341 39.7299C103.341 38.0499 102.967 36.5683 102.221 35.2849C101.474 34.0016 100.541 32.7883 99.4208 31.6449C98.3008 30.5016 97.0991 29.3583 95.8158 28.2149C94.5324 27.0716 93.3308 25.8233 92.2108 24.4699C91.0908 23.1166 90.1575 21.5766 89.4108 19.8499C88.6641 18.1233 88.2908 16.0933 88.2908 13.7599ZM114.001 1.99994H137.801V8.99994H129.751V50.9999H122.051V8.99994H114.001V1.99994ZM158.051 50.9999C157.957 50.6733 157.864 50.3699 157.771 50.0899C157.677 49.8099 157.596 49.4599 157.526 49.0399C157.456 48.6199 157.409 48.0833 157.386 47.4299C157.362 46.7766 157.351 45.9599 157.351 44.9799V37.2799C157.351 34.9933 156.954 33.3833 156.161 32.4499C155.367 31.5166 154.084 31.0499 152.311 31.0499H149.651V50.9999H141.951V1.99994H153.571C157.584 1.99994 160.489 2.93327 162.286 4.79994C164.082 6.66662 164.981 9.48992 164.981 13.2699V17.1199C164.981 22.16 163.301 25.4733 159.941 27.0599C161.901 27.8533 163.242 29.1483 163.966 30.9449C164.689 32.7416 165.051 34.9233 165.051 37.4899V45.0499C165.051 46.2633 165.097 47.3249 165.191 48.2349C165.284 49.1449 165.517 50.0666 165.891 50.9999H158.051ZM149.651 8.99994V24.0499H152.661C154.107 24.0499 155.239 23.6766 156.056 22.9299C156.872 22.1833 157.281 20.83 157.281 18.8699V14.0399C157.281 12.2666 156.966 10.9833 156.336 10.1899C155.706 9.3966 154.714 8.99994 153.361 8.99994H149.651ZM178.231 1.99994V39.7999C178.231 41.5733 178.592 42.8099 179.316 43.5099C180.039 44.2099 181.007 44.5599 182.221 44.5599C183.434 44.5599 184.402 44.2099 185.126 43.5099C185.849 42.8099 186.211 41.5733 186.211 39.7999V1.99994H193.491V39.3099C193.491 43.2766 192.522 46.3216 190.586 48.4449C188.649 50.5683 185.791 51.6299 182.011 51.6299C178.231 51.6299 175.372 50.5683 173.436 48.4449C171.499 46.3216 170.531 43.2766 170.531 39.3099V1.99994H178.231ZM220.571 1.99994H244.371V8.99994H236.321V50.9999H228.621V8.99994H220.571V1.99994Z" fill="#171819"/>
<path fill-rule="evenodd" clip-rule="evenodd" d="M197.148 27.4644L217.148 2.46436V52.4644L197.148 27.4644Z" fill="#00A4E5"/>
</svg>
