<svg width="40" height="23" viewBox="0 0 40 23" fill="none" xmlns="http://www.w3.org/2000/svg">
<path fill-rule="evenodd" clip-rule="evenodd" d="M14.4199 11.6059L25.2543 0.21167V23L14.4199 11.6059Z" fill="#00A4E5"/>
<path fill-rule="evenodd" clip-rule="evenodd" d="M4.17123 0V17.228C4.17123 18.0362 4.36715 18.5999 4.759 18.9189C5.15084 19.2379 5.6754 19.3975 6.33269 19.3975C6.98998 19.3975 7.51454 19.2379 7.90638 18.9189C8.29823 18.5999 8.49415 18.0362 8.49415 17.228V0H12.4379V17.0047C12.4379 18.8126 11.9133 20.2004 10.8642 21.1681C9.81503 22.1359 8.26664 22.6197 6.21893 22.6197C4.17122 22.6197 2.62283 22.1359 1.57369 21.1681C0.524559 20.2004 0 18.8126 0 17.0047V0H4.17123Z" fill="#DADADA"/>
<path fill-rule="evenodd" clip-rule="evenodd" d="M27.1074 0H40.0003V3.19037H35.6395V22.3326H31.4683V3.19037H27.1074V0Z" fill="#DADADA"/>
</svg>
